G04 #@! TF.GenerationSoftware,KiCad,Pcbnew,(5.1.5)-3*
G04 #@! TF.CreationDate,2021-08-01T09:21:07-04:00*
G04 #@! TF.ProjectId,BindingPost_PCB,42696e64-696e-4675-906f-73745f504342,rev?*
G04 #@! TF.SameCoordinates,Original*
G04 #@! TF.FileFunction,Legend,Top*
G04 #@! TF.FilePolarity,Positive*
%FSLAX46Y46*%
G04 Gerber Fmt 4.6, Leading zero omitted, Abs format (unit mm)*
G04 Created by KiCad (PCBNEW (5.1.5)-3) date 2021-08-01 09:21:07*
%MOMM*%
%LPD*%
G04 APERTURE LIST*
%ADD10C,0.120000*%
%ADD11C,0.150000*%
G04 APERTURE END LIST*
D10*
X15842064Y-6948000D02*
X14637936Y-6948000D01*
X15842064Y-4228000D02*
X14637936Y-4228000D01*
X15501252Y-10616000D02*
X14978748Y-10616000D01*
X15501252Y-9196000D02*
X14978748Y-9196000D01*
X15501252Y-13260000D02*
X14978748Y-13260000D01*
X15501252Y-14680000D02*
X14978748Y-14680000D01*
X15501252Y-18236000D02*
X14978748Y-18236000D01*
X15501252Y-16816000D02*
X14978748Y-16816000D01*
D11*
X21002666Y-19010380D02*
X21002666Y-19724666D01*
X20955047Y-19867523D01*
X20859809Y-19962761D01*
X20716952Y-20010380D01*
X20621714Y-20010380D01*
X21431238Y-19105619D02*
X21478857Y-19058000D01*
X21574095Y-19010380D01*
X21812190Y-19010380D01*
X21907428Y-19058000D01*
X21955047Y-19105619D01*
X22002666Y-19200857D01*
X22002666Y-19296095D01*
X21955047Y-19438952D01*
X21383619Y-20010380D01*
X22002666Y-20010380D01*
X18335666Y-976380D02*
X18335666Y-1690666D01*
X18288047Y-1833523D01*
X18192809Y-1928761D01*
X18049952Y-1976380D01*
X17954714Y-1976380D01*
X19335666Y-1976380D02*
X18764238Y-1976380D01*
X19049952Y-1976380D02*
X19049952Y-976380D01*
X18954714Y-1119238D01*
X18859476Y-1214476D01*
X18764238Y-1262095D01*
X15073333Y-3024142D02*
X15025714Y-3071761D01*
X14882857Y-3119380D01*
X14787619Y-3119380D01*
X14644761Y-3071761D01*
X14549523Y-2976523D01*
X14501904Y-2881285D01*
X14454285Y-2690809D01*
X14454285Y-2547952D01*
X14501904Y-2357476D01*
X14549523Y-2262238D01*
X14644761Y-2167000D01*
X14787619Y-2119380D01*
X14882857Y-2119380D01*
X15025714Y-2167000D01*
X15073333Y-2214619D01*
X16025714Y-3119380D02*
X15454285Y-3119380D01*
X15740000Y-3119380D02*
X15740000Y-2119380D01*
X15644761Y-2262238D01*
X15549523Y-2357476D01*
X15454285Y-2405095D01*
X18375333Y-10263142D02*
X18327714Y-10310761D01*
X18184857Y-10358380D01*
X18089619Y-10358380D01*
X17946761Y-10310761D01*
X17851523Y-10215523D01*
X17803904Y-10120285D01*
X17756285Y-9929809D01*
X17756285Y-9786952D01*
X17803904Y-9596476D01*
X17851523Y-9501238D01*
X17946761Y-9406000D01*
X18089619Y-9358380D01*
X18184857Y-9358380D01*
X18327714Y-9406000D01*
X18375333Y-9453619D01*
X18756285Y-9453619D02*
X18803904Y-9406000D01*
X18899142Y-9358380D01*
X19137238Y-9358380D01*
X19232476Y-9406000D01*
X19280095Y-9453619D01*
X19327714Y-9548857D01*
X19327714Y-9644095D01*
X19280095Y-9786952D01*
X18708666Y-10358380D01*
X19327714Y-10358380D01*
X18375333Y-14581142D02*
X18327714Y-14628761D01*
X18184857Y-14676380D01*
X18089619Y-14676380D01*
X17946761Y-14628761D01*
X17851523Y-14533523D01*
X17803904Y-14438285D01*
X17756285Y-14247809D01*
X17756285Y-14104952D01*
X17803904Y-13914476D01*
X17851523Y-13819238D01*
X17946761Y-13724000D01*
X18089619Y-13676380D01*
X18184857Y-13676380D01*
X18327714Y-13724000D01*
X18375333Y-13771619D01*
X18708666Y-13676380D02*
X19327714Y-13676380D01*
X18994380Y-14057333D01*
X19137238Y-14057333D01*
X19232476Y-14104952D01*
X19280095Y-14152571D01*
X19327714Y-14247809D01*
X19327714Y-14485904D01*
X19280095Y-14581142D01*
X19232476Y-14628761D01*
X19137238Y-14676380D01*
X18851523Y-14676380D01*
X18756285Y-14628761D01*
X18708666Y-14581142D01*
X18375333Y-17883142D02*
X18327714Y-17930761D01*
X18184857Y-17978380D01*
X18089619Y-17978380D01*
X17946761Y-17930761D01*
X17851523Y-17835523D01*
X17803904Y-17740285D01*
X17756285Y-17549809D01*
X17756285Y-17406952D01*
X17803904Y-17216476D01*
X17851523Y-17121238D01*
X17946761Y-17026000D01*
X18089619Y-16978380D01*
X18184857Y-16978380D01*
X18327714Y-17026000D01*
X18375333Y-17073619D01*
X19232476Y-17311714D02*
X19232476Y-17978380D01*
X18994380Y-16930761D02*
X18756285Y-17645047D01*
X19375333Y-17645047D01*
M02*
