G04 #@! TF.GenerationSoftware,KiCad,Pcbnew,(5.1.5)-3*
G04 #@! TF.CreationDate,2021-08-01T09:21:07-04:00*
G04 #@! TF.ProjectId,BindingPost_PCB,42696e64-696e-4675-906f-73745f504342,rev?*
G04 #@! TF.SameCoordinates,Original*
G04 #@! TF.FileFunction,Paste,Top*
G04 #@! TF.FilePolarity,Positive*
%FSLAX46Y46*%
G04 Gerber Fmt 4.6, Leading zero omitted, Abs format (unit mm)*
G04 Created by KiCad (PCBNEW (5.1.5)-3) date 2021-08-01 09:21:07*
%MOMM*%
%LPD*%
G04 APERTURE LIST*
%ADD10C,0.100000*%
G04 APERTURE END LIST*
D10*
G36*
X17214504Y-4264204D02*
G01*
X17238773Y-4267804D01*
X17262571Y-4273765D01*
X17285671Y-4282030D01*
X17307849Y-4292520D01*
X17328893Y-4305133D01*
X17348598Y-4319747D01*
X17366777Y-4336223D01*
X17383253Y-4354402D01*
X17397867Y-4374107D01*
X17410480Y-4395151D01*
X17420970Y-4417329D01*
X17429235Y-4440429D01*
X17435196Y-4464227D01*
X17438796Y-4488496D01*
X17440000Y-4513000D01*
X17440000Y-6663000D01*
X17438796Y-6687504D01*
X17435196Y-6711773D01*
X17429235Y-6735571D01*
X17420970Y-6758671D01*
X17410480Y-6780849D01*
X17397867Y-6801893D01*
X17383253Y-6821598D01*
X17366777Y-6839777D01*
X17348598Y-6856253D01*
X17328893Y-6870867D01*
X17307849Y-6883480D01*
X17285671Y-6893970D01*
X17262571Y-6902235D01*
X17238773Y-6908196D01*
X17214504Y-6911796D01*
X17190000Y-6913000D01*
X16265000Y-6913000D01*
X16240496Y-6911796D01*
X16216227Y-6908196D01*
X16192429Y-6902235D01*
X16169329Y-6893970D01*
X16147151Y-6883480D01*
X16126107Y-6870867D01*
X16106402Y-6856253D01*
X16088223Y-6839777D01*
X16071747Y-6821598D01*
X16057133Y-6801893D01*
X16044520Y-6780849D01*
X16034030Y-6758671D01*
X16025765Y-6735571D01*
X16019804Y-6711773D01*
X16016204Y-6687504D01*
X16015000Y-6663000D01*
X16015000Y-4513000D01*
X16016204Y-4488496D01*
X16019804Y-4464227D01*
X16025765Y-4440429D01*
X16034030Y-4417329D01*
X16044520Y-4395151D01*
X16057133Y-4374107D01*
X16071747Y-4354402D01*
X16088223Y-4336223D01*
X16106402Y-4319747D01*
X16126107Y-4305133D01*
X16147151Y-4292520D01*
X16169329Y-4282030D01*
X16192429Y-4273765D01*
X16216227Y-4267804D01*
X16240496Y-4264204D01*
X16265000Y-4263000D01*
X17190000Y-4263000D01*
X17214504Y-4264204D01*
G37*
G36*
X14239504Y-4264204D02*
G01*
X14263773Y-4267804D01*
X14287571Y-4273765D01*
X14310671Y-4282030D01*
X14332849Y-4292520D01*
X14353893Y-4305133D01*
X14373598Y-4319747D01*
X14391777Y-4336223D01*
X14408253Y-4354402D01*
X14422867Y-4374107D01*
X14435480Y-4395151D01*
X14445970Y-4417329D01*
X14454235Y-4440429D01*
X14460196Y-4464227D01*
X14463796Y-4488496D01*
X14465000Y-4513000D01*
X14465000Y-6663000D01*
X14463796Y-6687504D01*
X14460196Y-6711773D01*
X14454235Y-6735571D01*
X14445970Y-6758671D01*
X14435480Y-6780849D01*
X14422867Y-6801893D01*
X14408253Y-6821598D01*
X14391777Y-6839777D01*
X14373598Y-6856253D01*
X14353893Y-6870867D01*
X14332849Y-6883480D01*
X14310671Y-6893970D01*
X14287571Y-6902235D01*
X14263773Y-6908196D01*
X14239504Y-6911796D01*
X14215000Y-6913000D01*
X13290000Y-6913000D01*
X13265496Y-6911796D01*
X13241227Y-6908196D01*
X13217429Y-6902235D01*
X13194329Y-6893970D01*
X13172151Y-6883480D01*
X13151107Y-6870867D01*
X13131402Y-6856253D01*
X13113223Y-6839777D01*
X13096747Y-6821598D01*
X13082133Y-6801893D01*
X13069520Y-6780849D01*
X13059030Y-6758671D01*
X13050765Y-6735571D01*
X13044804Y-6711773D01*
X13041204Y-6687504D01*
X13040000Y-6663000D01*
X13040000Y-4513000D01*
X13041204Y-4488496D01*
X13044804Y-4464227D01*
X13050765Y-4440429D01*
X13059030Y-4417329D01*
X13069520Y-4395151D01*
X13082133Y-4374107D01*
X13096747Y-4354402D01*
X13113223Y-4336223D01*
X13131402Y-4319747D01*
X13151107Y-4305133D01*
X13172151Y-4292520D01*
X13194329Y-4282030D01*
X13217429Y-4273765D01*
X13241227Y-4267804D01*
X13265496Y-4264204D01*
X13290000Y-4263000D01*
X14215000Y-4263000D01*
X14239504Y-4264204D01*
G37*
G36*
X16614505Y-9207204D02*
G01*
X16638773Y-9210804D01*
X16662572Y-9216765D01*
X16685671Y-9225030D01*
X16707850Y-9235520D01*
X16728893Y-9248132D01*
X16748599Y-9262747D01*
X16766777Y-9279223D01*
X16783253Y-9297401D01*
X16797868Y-9317107D01*
X16810480Y-9338150D01*
X16820970Y-9360329D01*
X16829235Y-9383428D01*
X16835196Y-9407227D01*
X16838796Y-9431495D01*
X16840000Y-9455999D01*
X16840000Y-10356001D01*
X16838796Y-10380505D01*
X16835196Y-10404773D01*
X16829235Y-10428572D01*
X16820970Y-10451671D01*
X16810480Y-10473850D01*
X16797868Y-10494893D01*
X16783253Y-10514599D01*
X16766777Y-10532777D01*
X16748599Y-10549253D01*
X16728893Y-10563868D01*
X16707850Y-10576480D01*
X16685671Y-10586970D01*
X16662572Y-10595235D01*
X16638773Y-10601196D01*
X16614505Y-10604796D01*
X16590001Y-10606000D01*
X15939999Y-10606000D01*
X15915495Y-10604796D01*
X15891227Y-10601196D01*
X15867428Y-10595235D01*
X15844329Y-10586970D01*
X15822150Y-10576480D01*
X15801107Y-10563868D01*
X15781401Y-10549253D01*
X15763223Y-10532777D01*
X15746747Y-10514599D01*
X15732132Y-10494893D01*
X15719520Y-10473850D01*
X15709030Y-10451671D01*
X15700765Y-10428572D01*
X15694804Y-10404773D01*
X15691204Y-10380505D01*
X15690000Y-10356001D01*
X15690000Y-9455999D01*
X15691204Y-9431495D01*
X15694804Y-9407227D01*
X15700765Y-9383428D01*
X15709030Y-9360329D01*
X15719520Y-9338150D01*
X15732132Y-9317107D01*
X15746747Y-9297401D01*
X15763223Y-9279223D01*
X15781401Y-9262747D01*
X15801107Y-9248132D01*
X15822150Y-9235520D01*
X15844329Y-9225030D01*
X15867428Y-9216765D01*
X15891227Y-9210804D01*
X15915495Y-9207204D01*
X15939999Y-9206000D01*
X16590001Y-9206000D01*
X16614505Y-9207204D01*
G37*
G36*
X14564505Y-9207204D02*
G01*
X14588773Y-9210804D01*
X14612572Y-9216765D01*
X14635671Y-9225030D01*
X14657850Y-9235520D01*
X14678893Y-9248132D01*
X14698599Y-9262747D01*
X14716777Y-9279223D01*
X14733253Y-9297401D01*
X14747868Y-9317107D01*
X14760480Y-9338150D01*
X14770970Y-9360329D01*
X14779235Y-9383428D01*
X14785196Y-9407227D01*
X14788796Y-9431495D01*
X14790000Y-9455999D01*
X14790000Y-10356001D01*
X14788796Y-10380505D01*
X14785196Y-10404773D01*
X14779235Y-10428572D01*
X14770970Y-10451671D01*
X14760480Y-10473850D01*
X14747868Y-10494893D01*
X14733253Y-10514599D01*
X14716777Y-10532777D01*
X14698599Y-10549253D01*
X14678893Y-10563868D01*
X14657850Y-10576480D01*
X14635671Y-10586970D01*
X14612572Y-10595235D01*
X14588773Y-10601196D01*
X14564505Y-10604796D01*
X14540001Y-10606000D01*
X13889999Y-10606000D01*
X13865495Y-10604796D01*
X13841227Y-10601196D01*
X13817428Y-10595235D01*
X13794329Y-10586970D01*
X13772150Y-10576480D01*
X13751107Y-10563868D01*
X13731401Y-10549253D01*
X13713223Y-10532777D01*
X13696747Y-10514599D01*
X13682132Y-10494893D01*
X13669520Y-10473850D01*
X13659030Y-10451671D01*
X13650765Y-10428572D01*
X13644804Y-10404773D01*
X13641204Y-10380505D01*
X13640000Y-10356001D01*
X13640000Y-9455999D01*
X13641204Y-9431495D01*
X13644804Y-9407227D01*
X13650765Y-9383428D01*
X13659030Y-9360329D01*
X13669520Y-9338150D01*
X13682132Y-9317107D01*
X13696747Y-9297401D01*
X13713223Y-9279223D01*
X13731401Y-9262747D01*
X13751107Y-9248132D01*
X13772150Y-9235520D01*
X13794329Y-9225030D01*
X13817428Y-9216765D01*
X13841227Y-9210804D01*
X13865495Y-9207204D01*
X13889999Y-9206000D01*
X14540001Y-9206000D01*
X14564505Y-9207204D01*
G37*
G36*
X14564505Y-13271204D02*
G01*
X14588773Y-13274804D01*
X14612572Y-13280765D01*
X14635671Y-13289030D01*
X14657850Y-13299520D01*
X14678893Y-13312132D01*
X14698599Y-13326747D01*
X14716777Y-13343223D01*
X14733253Y-13361401D01*
X14747868Y-13381107D01*
X14760480Y-13402150D01*
X14770970Y-13424329D01*
X14779235Y-13447428D01*
X14785196Y-13471227D01*
X14788796Y-13495495D01*
X14790000Y-13519999D01*
X14790000Y-14420001D01*
X14788796Y-14444505D01*
X14785196Y-14468773D01*
X14779235Y-14492572D01*
X14770970Y-14515671D01*
X14760480Y-14537850D01*
X14747868Y-14558893D01*
X14733253Y-14578599D01*
X14716777Y-14596777D01*
X14698599Y-14613253D01*
X14678893Y-14627868D01*
X14657850Y-14640480D01*
X14635671Y-14650970D01*
X14612572Y-14659235D01*
X14588773Y-14665196D01*
X14564505Y-14668796D01*
X14540001Y-14670000D01*
X13889999Y-14670000D01*
X13865495Y-14668796D01*
X13841227Y-14665196D01*
X13817428Y-14659235D01*
X13794329Y-14650970D01*
X13772150Y-14640480D01*
X13751107Y-14627868D01*
X13731401Y-14613253D01*
X13713223Y-14596777D01*
X13696747Y-14578599D01*
X13682132Y-14558893D01*
X13669520Y-14537850D01*
X13659030Y-14515671D01*
X13650765Y-14492572D01*
X13644804Y-14468773D01*
X13641204Y-14444505D01*
X13640000Y-14420001D01*
X13640000Y-13519999D01*
X13641204Y-13495495D01*
X13644804Y-13471227D01*
X13650765Y-13447428D01*
X13659030Y-13424329D01*
X13669520Y-13402150D01*
X13682132Y-13381107D01*
X13696747Y-13361401D01*
X13713223Y-13343223D01*
X13731401Y-13326747D01*
X13751107Y-13312132D01*
X13772150Y-13299520D01*
X13794329Y-13289030D01*
X13817428Y-13280765D01*
X13841227Y-13274804D01*
X13865495Y-13271204D01*
X13889999Y-13270000D01*
X14540001Y-13270000D01*
X14564505Y-13271204D01*
G37*
G36*
X16614505Y-13271204D02*
G01*
X16638773Y-13274804D01*
X16662572Y-13280765D01*
X16685671Y-13289030D01*
X16707850Y-13299520D01*
X16728893Y-13312132D01*
X16748599Y-13326747D01*
X16766777Y-13343223D01*
X16783253Y-13361401D01*
X16797868Y-13381107D01*
X16810480Y-13402150D01*
X16820970Y-13424329D01*
X16829235Y-13447428D01*
X16835196Y-13471227D01*
X16838796Y-13495495D01*
X16840000Y-13519999D01*
X16840000Y-14420001D01*
X16838796Y-14444505D01*
X16835196Y-14468773D01*
X16829235Y-14492572D01*
X16820970Y-14515671D01*
X16810480Y-14537850D01*
X16797868Y-14558893D01*
X16783253Y-14578599D01*
X16766777Y-14596777D01*
X16748599Y-14613253D01*
X16728893Y-14627868D01*
X16707850Y-14640480D01*
X16685671Y-14650970D01*
X16662572Y-14659235D01*
X16638773Y-14665196D01*
X16614505Y-14668796D01*
X16590001Y-14670000D01*
X15939999Y-14670000D01*
X15915495Y-14668796D01*
X15891227Y-14665196D01*
X15867428Y-14659235D01*
X15844329Y-14650970D01*
X15822150Y-14640480D01*
X15801107Y-14627868D01*
X15781401Y-14613253D01*
X15763223Y-14596777D01*
X15746747Y-14578599D01*
X15732132Y-14558893D01*
X15719520Y-14537850D01*
X15709030Y-14515671D01*
X15700765Y-14492572D01*
X15694804Y-14468773D01*
X15691204Y-14444505D01*
X15690000Y-14420001D01*
X15690000Y-13519999D01*
X15691204Y-13495495D01*
X15694804Y-13471227D01*
X15700765Y-13447428D01*
X15709030Y-13424329D01*
X15719520Y-13402150D01*
X15732132Y-13381107D01*
X15746747Y-13361401D01*
X15763223Y-13343223D01*
X15781401Y-13326747D01*
X15801107Y-13312132D01*
X15822150Y-13299520D01*
X15844329Y-13289030D01*
X15867428Y-13280765D01*
X15891227Y-13274804D01*
X15915495Y-13271204D01*
X15939999Y-13270000D01*
X16590001Y-13270000D01*
X16614505Y-13271204D01*
G37*
G36*
X16614505Y-16827204D02*
G01*
X16638773Y-16830804D01*
X16662572Y-16836765D01*
X16685671Y-16845030D01*
X16707850Y-16855520D01*
X16728893Y-16868132D01*
X16748599Y-16882747D01*
X16766777Y-16899223D01*
X16783253Y-16917401D01*
X16797868Y-16937107D01*
X16810480Y-16958150D01*
X16820970Y-16980329D01*
X16829235Y-17003428D01*
X16835196Y-17027227D01*
X16838796Y-17051495D01*
X16840000Y-17075999D01*
X16840000Y-17976001D01*
X16838796Y-18000505D01*
X16835196Y-18024773D01*
X16829235Y-18048572D01*
X16820970Y-18071671D01*
X16810480Y-18093850D01*
X16797868Y-18114893D01*
X16783253Y-18134599D01*
X16766777Y-18152777D01*
X16748599Y-18169253D01*
X16728893Y-18183868D01*
X16707850Y-18196480D01*
X16685671Y-18206970D01*
X16662572Y-18215235D01*
X16638773Y-18221196D01*
X16614505Y-18224796D01*
X16590001Y-18226000D01*
X15939999Y-18226000D01*
X15915495Y-18224796D01*
X15891227Y-18221196D01*
X15867428Y-18215235D01*
X15844329Y-18206970D01*
X15822150Y-18196480D01*
X15801107Y-18183868D01*
X15781401Y-18169253D01*
X15763223Y-18152777D01*
X15746747Y-18134599D01*
X15732132Y-18114893D01*
X15719520Y-18093850D01*
X15709030Y-18071671D01*
X15700765Y-18048572D01*
X15694804Y-18024773D01*
X15691204Y-18000505D01*
X15690000Y-17976001D01*
X15690000Y-17075999D01*
X15691204Y-17051495D01*
X15694804Y-17027227D01*
X15700765Y-17003428D01*
X15709030Y-16980329D01*
X15719520Y-16958150D01*
X15732132Y-16937107D01*
X15746747Y-16917401D01*
X15763223Y-16899223D01*
X15781401Y-16882747D01*
X15801107Y-16868132D01*
X15822150Y-16855520D01*
X15844329Y-16845030D01*
X15867428Y-16836765D01*
X15891227Y-16830804D01*
X15915495Y-16827204D01*
X15939999Y-16826000D01*
X16590001Y-16826000D01*
X16614505Y-16827204D01*
G37*
G36*
X14564505Y-16827204D02*
G01*
X14588773Y-16830804D01*
X14612572Y-16836765D01*
X14635671Y-16845030D01*
X14657850Y-16855520D01*
X14678893Y-16868132D01*
X14698599Y-16882747D01*
X14716777Y-16899223D01*
X14733253Y-16917401D01*
X14747868Y-16937107D01*
X14760480Y-16958150D01*
X14770970Y-16980329D01*
X14779235Y-17003428D01*
X14785196Y-17027227D01*
X14788796Y-17051495D01*
X14790000Y-17075999D01*
X14790000Y-17976001D01*
X14788796Y-18000505D01*
X14785196Y-18024773D01*
X14779235Y-18048572D01*
X14770970Y-18071671D01*
X14760480Y-18093850D01*
X14747868Y-18114893D01*
X14733253Y-18134599D01*
X14716777Y-18152777D01*
X14698599Y-18169253D01*
X14678893Y-18183868D01*
X14657850Y-18196480D01*
X14635671Y-18206970D01*
X14612572Y-18215235D01*
X14588773Y-18221196D01*
X14564505Y-18224796D01*
X14540001Y-18226000D01*
X13889999Y-18226000D01*
X13865495Y-18224796D01*
X13841227Y-18221196D01*
X13817428Y-18215235D01*
X13794329Y-18206970D01*
X13772150Y-18196480D01*
X13751107Y-18183868D01*
X13731401Y-18169253D01*
X13713223Y-18152777D01*
X13696747Y-18134599D01*
X13682132Y-18114893D01*
X13669520Y-18093850D01*
X13659030Y-18071671D01*
X13650765Y-18048572D01*
X13644804Y-18024773D01*
X13641204Y-18000505D01*
X13640000Y-17976001D01*
X13640000Y-17075999D01*
X13641204Y-17051495D01*
X13644804Y-17027227D01*
X13650765Y-17003428D01*
X13659030Y-16980329D01*
X13669520Y-16958150D01*
X13682132Y-16937107D01*
X13696747Y-16917401D01*
X13713223Y-16899223D01*
X13731401Y-16882747D01*
X13751107Y-16868132D01*
X13772150Y-16855520D01*
X13794329Y-16845030D01*
X13817428Y-16836765D01*
X13841227Y-16830804D01*
X13865495Y-16827204D01*
X13889999Y-16826000D01*
X14540001Y-16826000D01*
X14564505Y-16827204D01*
G37*
M02*
