G04 #@! TF.GenerationSoftware,KiCad,Pcbnew,(5.1.5)-3*
G04 #@! TF.CreationDate,2021-08-01T09:21:07-04:00*
G04 #@! TF.ProjectId,BindingPost_PCB,42696e64-696e-4675-906f-73745f504342,rev?*
G04 #@! TF.SameCoordinates,Original*
G04 #@! TF.FileFunction,Copper,L2,Bot*
G04 #@! TF.FilePolarity,Positive*
%FSLAX46Y46*%
G04 Gerber Fmt 4.6, Leading zero omitted, Abs format (unit mm)*
G04 Created by KiCad (PCBNEW (5.1.5)-3) date 2021-08-01 09:21:07*
%MOMM*%
%LPD*%
G04 APERTURE LIST*
%ADD10C,6.350000*%
%ADD11O,10.160000X9.271000*%
%ADD12C,0.254000*%
G04 APERTURE END LIST*
D10*
X24892000Y-16002000D03*
X5842000Y-16002000D03*
D11*
X5842000Y-5080000D03*
X24892000Y-5080000D03*
D12*
G36*
X21505199Y-676536D02*
G01*
X20702662Y-1335162D01*
X20044036Y-2137699D01*
X19554633Y-3053308D01*
X19253260Y-4046801D01*
X19151499Y-5080000D01*
X19253260Y-6113199D01*
X19554633Y-7106692D01*
X20044036Y-8022301D01*
X20702662Y-8824838D01*
X21505199Y-9483464D01*
X22420808Y-9972867D01*
X23414301Y-10274240D01*
X24188583Y-10350500D01*
X25595417Y-10350500D01*
X26369699Y-10274240D01*
X27363192Y-9972867D01*
X28278801Y-9483464D01*
X29081338Y-8824838D01*
X29739964Y-8022301D01*
X29821516Y-7869729D01*
X29826330Y-16734783D01*
X29753808Y-17547372D01*
X29546276Y-18305984D01*
X29207682Y-19015862D01*
X28748738Y-19654550D01*
X28183938Y-20201878D01*
X27531142Y-20640539D01*
X26810988Y-20956665D01*
X26033095Y-21143420D01*
X25621539Y-21184000D01*
X5363392Y-21184000D01*
X4551751Y-21111563D01*
X4089991Y-20985240D01*
X3167455Y-20605372D01*
X3085373Y-20566221D01*
X2447590Y-20107928D01*
X1901054Y-19543945D01*
X1489230Y-18931086D01*
X3631335Y-18931086D01*
X4022581Y-19370476D01*
X4714698Y-19660703D01*
X5450136Y-19810328D01*
X6200634Y-19813600D01*
X6937349Y-19670395D01*
X7631972Y-19386216D01*
X7661419Y-19370476D01*
X8052665Y-18931086D01*
X5842000Y-16720420D01*
X3631335Y-18931086D01*
X1489230Y-18931086D01*
X1463022Y-18892085D01*
X1147349Y-18172963D01*
X962794Y-17404232D01*
X914000Y-16739792D01*
X914000Y-16360634D01*
X2030400Y-16360634D01*
X2173605Y-17097349D01*
X2457784Y-17791972D01*
X2473524Y-17821419D01*
X2912914Y-18212665D01*
X5123580Y-16002000D01*
X6560420Y-16002000D01*
X8771086Y-18212665D01*
X9210476Y-17821419D01*
X9500703Y-17129302D01*
X9650328Y-16393864D01*
X9653600Y-15643366D01*
X9650370Y-15626748D01*
X21082000Y-15626748D01*
X21082000Y-16377252D01*
X21228416Y-17113336D01*
X21515622Y-17806712D01*
X21932580Y-18430733D01*
X22463267Y-18961420D01*
X23087288Y-19378378D01*
X23780664Y-19665584D01*
X24516748Y-19812000D01*
X25267252Y-19812000D01*
X26003336Y-19665584D01*
X26696712Y-19378378D01*
X27320733Y-18961420D01*
X27851420Y-18430733D01*
X28268378Y-17806712D01*
X28555584Y-17113336D01*
X28702000Y-16377252D01*
X28702000Y-15626748D01*
X28555584Y-14890664D01*
X28268378Y-14197288D01*
X27851420Y-13573267D01*
X27320733Y-13042580D01*
X26696712Y-12625622D01*
X26003336Y-12338416D01*
X25267252Y-12192000D01*
X24516748Y-12192000D01*
X23780664Y-12338416D01*
X23087288Y-12625622D01*
X22463267Y-13042580D01*
X21932580Y-13573267D01*
X21515622Y-14197288D01*
X21228416Y-14890664D01*
X21082000Y-15626748D01*
X9650370Y-15626748D01*
X9510395Y-14906651D01*
X9226216Y-14212028D01*
X9210476Y-14182581D01*
X8771086Y-13791335D01*
X6560420Y-16002000D01*
X5123580Y-16002000D01*
X2912914Y-13791335D01*
X2473524Y-14182581D01*
X2183297Y-14874698D01*
X2033672Y-15610136D01*
X2030400Y-16360634D01*
X914000Y-16360634D01*
X914000Y-13072914D01*
X3631335Y-13072914D01*
X5842000Y-15283580D01*
X8052665Y-13072914D01*
X7661419Y-12633524D01*
X6969302Y-12343297D01*
X6233864Y-12193672D01*
X5483366Y-12190400D01*
X4746651Y-12333605D01*
X4052028Y-12617784D01*
X4022581Y-12633524D01*
X3631335Y-13072914D01*
X914000Y-13072914D01*
X914000Y-7800682D01*
X1098728Y-8124751D01*
X1775329Y-8904896D01*
X2591128Y-9538052D01*
X3514774Y-9999888D01*
X4510773Y-10272655D01*
X5334000Y-10188690D01*
X5334000Y-5588000D01*
X6350000Y-5588000D01*
X6350000Y-10188690D01*
X7173227Y-10272655D01*
X8169226Y-9999888D01*
X9092872Y-9538052D01*
X9908671Y-8904896D01*
X10585272Y-8124751D01*
X11096674Y-7227598D01*
X11388406Y-6402395D01*
X11372945Y-5588000D01*
X6350000Y-5588000D01*
X5334000Y-5588000D01*
X5314000Y-5588000D01*
X5314000Y-4572000D01*
X5334000Y-4572000D01*
X5334000Y-4552000D01*
X6350000Y-4552000D01*
X6350000Y-4572000D01*
X11372945Y-4572000D01*
X11388406Y-3757605D01*
X11096674Y-2932402D01*
X10585272Y-2035249D01*
X9908671Y-1255104D01*
X9141901Y-660000D01*
X21536136Y-660000D01*
X21505199Y-676536D01*
G37*
X21505199Y-676536D02*
X20702662Y-1335162D01*
X20044036Y-2137699D01*
X19554633Y-3053308D01*
X19253260Y-4046801D01*
X19151499Y-5080000D01*
X19253260Y-6113199D01*
X19554633Y-7106692D01*
X20044036Y-8022301D01*
X20702662Y-8824838D01*
X21505199Y-9483464D01*
X22420808Y-9972867D01*
X23414301Y-10274240D01*
X24188583Y-10350500D01*
X25595417Y-10350500D01*
X26369699Y-10274240D01*
X27363192Y-9972867D01*
X28278801Y-9483464D01*
X29081338Y-8824838D01*
X29739964Y-8022301D01*
X29821516Y-7869729D01*
X29826330Y-16734783D01*
X29753808Y-17547372D01*
X29546276Y-18305984D01*
X29207682Y-19015862D01*
X28748738Y-19654550D01*
X28183938Y-20201878D01*
X27531142Y-20640539D01*
X26810988Y-20956665D01*
X26033095Y-21143420D01*
X25621539Y-21184000D01*
X5363392Y-21184000D01*
X4551751Y-21111563D01*
X4089991Y-20985240D01*
X3167455Y-20605372D01*
X3085373Y-20566221D01*
X2447590Y-20107928D01*
X1901054Y-19543945D01*
X1489230Y-18931086D01*
X3631335Y-18931086D01*
X4022581Y-19370476D01*
X4714698Y-19660703D01*
X5450136Y-19810328D01*
X6200634Y-19813600D01*
X6937349Y-19670395D01*
X7631972Y-19386216D01*
X7661419Y-19370476D01*
X8052665Y-18931086D01*
X5842000Y-16720420D01*
X3631335Y-18931086D01*
X1489230Y-18931086D01*
X1463022Y-18892085D01*
X1147349Y-18172963D01*
X962794Y-17404232D01*
X914000Y-16739792D01*
X914000Y-16360634D01*
X2030400Y-16360634D01*
X2173605Y-17097349D01*
X2457784Y-17791972D01*
X2473524Y-17821419D01*
X2912914Y-18212665D01*
X5123580Y-16002000D01*
X6560420Y-16002000D01*
X8771086Y-18212665D01*
X9210476Y-17821419D01*
X9500703Y-17129302D01*
X9650328Y-16393864D01*
X9653600Y-15643366D01*
X9650370Y-15626748D01*
X21082000Y-15626748D01*
X21082000Y-16377252D01*
X21228416Y-17113336D01*
X21515622Y-17806712D01*
X21932580Y-18430733D01*
X22463267Y-18961420D01*
X23087288Y-19378378D01*
X23780664Y-19665584D01*
X24516748Y-19812000D01*
X25267252Y-19812000D01*
X26003336Y-19665584D01*
X26696712Y-19378378D01*
X27320733Y-18961420D01*
X27851420Y-18430733D01*
X28268378Y-17806712D01*
X28555584Y-17113336D01*
X28702000Y-16377252D01*
X28702000Y-15626748D01*
X28555584Y-14890664D01*
X28268378Y-14197288D01*
X27851420Y-13573267D01*
X27320733Y-13042580D01*
X26696712Y-12625622D01*
X26003336Y-12338416D01*
X25267252Y-12192000D01*
X24516748Y-12192000D01*
X23780664Y-12338416D01*
X23087288Y-12625622D01*
X22463267Y-13042580D01*
X21932580Y-13573267D01*
X21515622Y-14197288D01*
X21228416Y-14890664D01*
X21082000Y-15626748D01*
X9650370Y-15626748D01*
X9510395Y-14906651D01*
X9226216Y-14212028D01*
X9210476Y-14182581D01*
X8771086Y-13791335D01*
X6560420Y-16002000D01*
X5123580Y-16002000D01*
X2912914Y-13791335D01*
X2473524Y-14182581D01*
X2183297Y-14874698D01*
X2033672Y-15610136D01*
X2030400Y-16360634D01*
X914000Y-16360634D01*
X914000Y-13072914D01*
X3631335Y-13072914D01*
X5842000Y-15283580D01*
X8052665Y-13072914D01*
X7661419Y-12633524D01*
X6969302Y-12343297D01*
X6233864Y-12193672D01*
X5483366Y-12190400D01*
X4746651Y-12333605D01*
X4052028Y-12617784D01*
X4022581Y-12633524D01*
X3631335Y-13072914D01*
X914000Y-13072914D01*
X914000Y-7800682D01*
X1098728Y-8124751D01*
X1775329Y-8904896D01*
X2591128Y-9538052D01*
X3514774Y-9999888D01*
X4510773Y-10272655D01*
X5334000Y-10188690D01*
X5334000Y-5588000D01*
X6350000Y-5588000D01*
X6350000Y-10188690D01*
X7173227Y-10272655D01*
X8169226Y-9999888D01*
X9092872Y-9538052D01*
X9908671Y-8904896D01*
X10585272Y-8124751D01*
X11096674Y-7227598D01*
X11388406Y-6402395D01*
X11372945Y-5588000D01*
X6350000Y-5588000D01*
X5334000Y-5588000D01*
X5314000Y-5588000D01*
X5314000Y-4572000D01*
X5334000Y-4572000D01*
X5334000Y-4552000D01*
X6350000Y-4552000D01*
X6350000Y-4572000D01*
X11372945Y-4572000D01*
X11388406Y-3757605D01*
X11096674Y-2932402D01*
X10585272Y-2035249D01*
X9908671Y-1255104D01*
X9141901Y-660000D01*
X21536136Y-660000D01*
X21505199Y-676536D01*
M02*
