G04 #@! TF.GenerationSoftware,KiCad,Pcbnew,(5.1.5)-3*
G04 #@! TF.CreationDate,2021-08-01T09:21:07-04:00*
G04 #@! TF.ProjectId,BindingPost_PCB,42696e64-696e-4675-906f-73745f504342,rev?*
G04 #@! TF.SameCoordinates,Original*
G04 #@! TF.FileFunction,Copper,L1,Top*
G04 #@! TF.FilePolarity,Positive*
%FSLAX46Y46*%
G04 Gerber Fmt 4.6, Leading zero omitted, Abs format (unit mm)*
G04 Created by KiCad (PCBNEW (5.1.5)-3) date 2021-08-01 09:21:07*
%MOMM*%
%LPD*%
G04 APERTURE LIST*
%ADD10C,6.350000*%
%ADD11O,10.160000X9.271000*%
%ADD12C,0.100000*%
%ADD13C,0.254000*%
G04 APERTURE END LIST*
D10*
X24892000Y-16002000D03*
X5842000Y-16002000D03*
D11*
X5842000Y-5080000D03*
X24892000Y-5080000D03*
G04 #@! TA.AperFunction,SMDPad,CuDef*
D12*
G36*
X17214504Y-4264204D02*
G01*
X17238773Y-4267804D01*
X17262571Y-4273765D01*
X17285671Y-4282030D01*
X17307849Y-4292520D01*
X17328893Y-4305133D01*
X17348598Y-4319747D01*
X17366777Y-4336223D01*
X17383253Y-4354402D01*
X17397867Y-4374107D01*
X17410480Y-4395151D01*
X17420970Y-4417329D01*
X17429235Y-4440429D01*
X17435196Y-4464227D01*
X17438796Y-4488496D01*
X17440000Y-4513000D01*
X17440000Y-6663000D01*
X17438796Y-6687504D01*
X17435196Y-6711773D01*
X17429235Y-6735571D01*
X17420970Y-6758671D01*
X17410480Y-6780849D01*
X17397867Y-6801893D01*
X17383253Y-6821598D01*
X17366777Y-6839777D01*
X17348598Y-6856253D01*
X17328893Y-6870867D01*
X17307849Y-6883480D01*
X17285671Y-6893970D01*
X17262571Y-6902235D01*
X17238773Y-6908196D01*
X17214504Y-6911796D01*
X17190000Y-6913000D01*
X16265000Y-6913000D01*
X16240496Y-6911796D01*
X16216227Y-6908196D01*
X16192429Y-6902235D01*
X16169329Y-6893970D01*
X16147151Y-6883480D01*
X16126107Y-6870867D01*
X16106402Y-6856253D01*
X16088223Y-6839777D01*
X16071747Y-6821598D01*
X16057133Y-6801893D01*
X16044520Y-6780849D01*
X16034030Y-6758671D01*
X16025765Y-6735571D01*
X16019804Y-6711773D01*
X16016204Y-6687504D01*
X16015000Y-6663000D01*
X16015000Y-4513000D01*
X16016204Y-4488496D01*
X16019804Y-4464227D01*
X16025765Y-4440429D01*
X16034030Y-4417329D01*
X16044520Y-4395151D01*
X16057133Y-4374107D01*
X16071747Y-4354402D01*
X16088223Y-4336223D01*
X16106402Y-4319747D01*
X16126107Y-4305133D01*
X16147151Y-4292520D01*
X16169329Y-4282030D01*
X16192429Y-4273765D01*
X16216227Y-4267804D01*
X16240496Y-4264204D01*
X16265000Y-4263000D01*
X17190000Y-4263000D01*
X17214504Y-4264204D01*
G37*
G04 #@! TD.AperFunction*
G04 #@! TA.AperFunction,SMDPad,CuDef*
G36*
X14239504Y-4264204D02*
G01*
X14263773Y-4267804D01*
X14287571Y-4273765D01*
X14310671Y-4282030D01*
X14332849Y-4292520D01*
X14353893Y-4305133D01*
X14373598Y-4319747D01*
X14391777Y-4336223D01*
X14408253Y-4354402D01*
X14422867Y-4374107D01*
X14435480Y-4395151D01*
X14445970Y-4417329D01*
X14454235Y-4440429D01*
X14460196Y-4464227D01*
X14463796Y-4488496D01*
X14465000Y-4513000D01*
X14465000Y-6663000D01*
X14463796Y-6687504D01*
X14460196Y-6711773D01*
X14454235Y-6735571D01*
X14445970Y-6758671D01*
X14435480Y-6780849D01*
X14422867Y-6801893D01*
X14408253Y-6821598D01*
X14391777Y-6839777D01*
X14373598Y-6856253D01*
X14353893Y-6870867D01*
X14332849Y-6883480D01*
X14310671Y-6893970D01*
X14287571Y-6902235D01*
X14263773Y-6908196D01*
X14239504Y-6911796D01*
X14215000Y-6913000D01*
X13290000Y-6913000D01*
X13265496Y-6911796D01*
X13241227Y-6908196D01*
X13217429Y-6902235D01*
X13194329Y-6893970D01*
X13172151Y-6883480D01*
X13151107Y-6870867D01*
X13131402Y-6856253D01*
X13113223Y-6839777D01*
X13096747Y-6821598D01*
X13082133Y-6801893D01*
X13069520Y-6780849D01*
X13059030Y-6758671D01*
X13050765Y-6735571D01*
X13044804Y-6711773D01*
X13041204Y-6687504D01*
X13040000Y-6663000D01*
X13040000Y-4513000D01*
X13041204Y-4488496D01*
X13044804Y-4464227D01*
X13050765Y-4440429D01*
X13059030Y-4417329D01*
X13069520Y-4395151D01*
X13082133Y-4374107D01*
X13096747Y-4354402D01*
X13113223Y-4336223D01*
X13131402Y-4319747D01*
X13151107Y-4305133D01*
X13172151Y-4292520D01*
X13194329Y-4282030D01*
X13217429Y-4273765D01*
X13241227Y-4267804D01*
X13265496Y-4264204D01*
X13290000Y-4263000D01*
X14215000Y-4263000D01*
X14239504Y-4264204D01*
G37*
G04 #@! TD.AperFunction*
G04 #@! TA.AperFunction,SMDPad,CuDef*
G36*
X16614505Y-9207204D02*
G01*
X16638773Y-9210804D01*
X16662572Y-9216765D01*
X16685671Y-9225030D01*
X16707850Y-9235520D01*
X16728893Y-9248132D01*
X16748599Y-9262747D01*
X16766777Y-9279223D01*
X16783253Y-9297401D01*
X16797868Y-9317107D01*
X16810480Y-9338150D01*
X16820970Y-9360329D01*
X16829235Y-9383428D01*
X16835196Y-9407227D01*
X16838796Y-9431495D01*
X16840000Y-9455999D01*
X16840000Y-10356001D01*
X16838796Y-10380505D01*
X16835196Y-10404773D01*
X16829235Y-10428572D01*
X16820970Y-10451671D01*
X16810480Y-10473850D01*
X16797868Y-10494893D01*
X16783253Y-10514599D01*
X16766777Y-10532777D01*
X16748599Y-10549253D01*
X16728893Y-10563868D01*
X16707850Y-10576480D01*
X16685671Y-10586970D01*
X16662572Y-10595235D01*
X16638773Y-10601196D01*
X16614505Y-10604796D01*
X16590001Y-10606000D01*
X15939999Y-10606000D01*
X15915495Y-10604796D01*
X15891227Y-10601196D01*
X15867428Y-10595235D01*
X15844329Y-10586970D01*
X15822150Y-10576480D01*
X15801107Y-10563868D01*
X15781401Y-10549253D01*
X15763223Y-10532777D01*
X15746747Y-10514599D01*
X15732132Y-10494893D01*
X15719520Y-10473850D01*
X15709030Y-10451671D01*
X15700765Y-10428572D01*
X15694804Y-10404773D01*
X15691204Y-10380505D01*
X15690000Y-10356001D01*
X15690000Y-9455999D01*
X15691204Y-9431495D01*
X15694804Y-9407227D01*
X15700765Y-9383428D01*
X15709030Y-9360329D01*
X15719520Y-9338150D01*
X15732132Y-9317107D01*
X15746747Y-9297401D01*
X15763223Y-9279223D01*
X15781401Y-9262747D01*
X15801107Y-9248132D01*
X15822150Y-9235520D01*
X15844329Y-9225030D01*
X15867428Y-9216765D01*
X15891227Y-9210804D01*
X15915495Y-9207204D01*
X15939999Y-9206000D01*
X16590001Y-9206000D01*
X16614505Y-9207204D01*
G37*
G04 #@! TD.AperFunction*
G04 #@! TA.AperFunction,SMDPad,CuDef*
G36*
X14564505Y-9207204D02*
G01*
X14588773Y-9210804D01*
X14612572Y-9216765D01*
X14635671Y-9225030D01*
X14657850Y-9235520D01*
X14678893Y-9248132D01*
X14698599Y-9262747D01*
X14716777Y-9279223D01*
X14733253Y-9297401D01*
X14747868Y-9317107D01*
X14760480Y-9338150D01*
X14770970Y-9360329D01*
X14779235Y-9383428D01*
X14785196Y-9407227D01*
X14788796Y-9431495D01*
X14790000Y-9455999D01*
X14790000Y-10356001D01*
X14788796Y-10380505D01*
X14785196Y-10404773D01*
X14779235Y-10428572D01*
X14770970Y-10451671D01*
X14760480Y-10473850D01*
X14747868Y-10494893D01*
X14733253Y-10514599D01*
X14716777Y-10532777D01*
X14698599Y-10549253D01*
X14678893Y-10563868D01*
X14657850Y-10576480D01*
X14635671Y-10586970D01*
X14612572Y-10595235D01*
X14588773Y-10601196D01*
X14564505Y-10604796D01*
X14540001Y-10606000D01*
X13889999Y-10606000D01*
X13865495Y-10604796D01*
X13841227Y-10601196D01*
X13817428Y-10595235D01*
X13794329Y-10586970D01*
X13772150Y-10576480D01*
X13751107Y-10563868D01*
X13731401Y-10549253D01*
X13713223Y-10532777D01*
X13696747Y-10514599D01*
X13682132Y-10494893D01*
X13669520Y-10473850D01*
X13659030Y-10451671D01*
X13650765Y-10428572D01*
X13644804Y-10404773D01*
X13641204Y-10380505D01*
X13640000Y-10356001D01*
X13640000Y-9455999D01*
X13641204Y-9431495D01*
X13644804Y-9407227D01*
X13650765Y-9383428D01*
X13659030Y-9360329D01*
X13669520Y-9338150D01*
X13682132Y-9317107D01*
X13696747Y-9297401D01*
X13713223Y-9279223D01*
X13731401Y-9262747D01*
X13751107Y-9248132D01*
X13772150Y-9235520D01*
X13794329Y-9225030D01*
X13817428Y-9216765D01*
X13841227Y-9210804D01*
X13865495Y-9207204D01*
X13889999Y-9206000D01*
X14540001Y-9206000D01*
X14564505Y-9207204D01*
G37*
G04 #@! TD.AperFunction*
G04 #@! TA.AperFunction,SMDPad,CuDef*
G36*
X14564505Y-13271204D02*
G01*
X14588773Y-13274804D01*
X14612572Y-13280765D01*
X14635671Y-13289030D01*
X14657850Y-13299520D01*
X14678893Y-13312132D01*
X14698599Y-13326747D01*
X14716777Y-13343223D01*
X14733253Y-13361401D01*
X14747868Y-13381107D01*
X14760480Y-13402150D01*
X14770970Y-13424329D01*
X14779235Y-13447428D01*
X14785196Y-13471227D01*
X14788796Y-13495495D01*
X14790000Y-13519999D01*
X14790000Y-14420001D01*
X14788796Y-14444505D01*
X14785196Y-14468773D01*
X14779235Y-14492572D01*
X14770970Y-14515671D01*
X14760480Y-14537850D01*
X14747868Y-14558893D01*
X14733253Y-14578599D01*
X14716777Y-14596777D01*
X14698599Y-14613253D01*
X14678893Y-14627868D01*
X14657850Y-14640480D01*
X14635671Y-14650970D01*
X14612572Y-14659235D01*
X14588773Y-14665196D01*
X14564505Y-14668796D01*
X14540001Y-14670000D01*
X13889999Y-14670000D01*
X13865495Y-14668796D01*
X13841227Y-14665196D01*
X13817428Y-14659235D01*
X13794329Y-14650970D01*
X13772150Y-14640480D01*
X13751107Y-14627868D01*
X13731401Y-14613253D01*
X13713223Y-14596777D01*
X13696747Y-14578599D01*
X13682132Y-14558893D01*
X13669520Y-14537850D01*
X13659030Y-14515671D01*
X13650765Y-14492572D01*
X13644804Y-14468773D01*
X13641204Y-14444505D01*
X13640000Y-14420001D01*
X13640000Y-13519999D01*
X13641204Y-13495495D01*
X13644804Y-13471227D01*
X13650765Y-13447428D01*
X13659030Y-13424329D01*
X13669520Y-13402150D01*
X13682132Y-13381107D01*
X13696747Y-13361401D01*
X13713223Y-13343223D01*
X13731401Y-13326747D01*
X13751107Y-13312132D01*
X13772150Y-13299520D01*
X13794329Y-13289030D01*
X13817428Y-13280765D01*
X13841227Y-13274804D01*
X13865495Y-13271204D01*
X13889999Y-13270000D01*
X14540001Y-13270000D01*
X14564505Y-13271204D01*
G37*
G04 #@! TD.AperFunction*
G04 #@! TA.AperFunction,SMDPad,CuDef*
G36*
X16614505Y-13271204D02*
G01*
X16638773Y-13274804D01*
X16662572Y-13280765D01*
X16685671Y-13289030D01*
X16707850Y-13299520D01*
X16728893Y-13312132D01*
X16748599Y-13326747D01*
X16766777Y-13343223D01*
X16783253Y-13361401D01*
X16797868Y-13381107D01*
X16810480Y-13402150D01*
X16820970Y-13424329D01*
X16829235Y-13447428D01*
X16835196Y-13471227D01*
X16838796Y-13495495D01*
X16840000Y-13519999D01*
X16840000Y-14420001D01*
X16838796Y-14444505D01*
X16835196Y-14468773D01*
X16829235Y-14492572D01*
X16820970Y-14515671D01*
X16810480Y-14537850D01*
X16797868Y-14558893D01*
X16783253Y-14578599D01*
X16766777Y-14596777D01*
X16748599Y-14613253D01*
X16728893Y-14627868D01*
X16707850Y-14640480D01*
X16685671Y-14650970D01*
X16662572Y-14659235D01*
X16638773Y-14665196D01*
X16614505Y-14668796D01*
X16590001Y-14670000D01*
X15939999Y-14670000D01*
X15915495Y-14668796D01*
X15891227Y-14665196D01*
X15867428Y-14659235D01*
X15844329Y-14650970D01*
X15822150Y-14640480D01*
X15801107Y-14627868D01*
X15781401Y-14613253D01*
X15763223Y-14596777D01*
X15746747Y-14578599D01*
X15732132Y-14558893D01*
X15719520Y-14537850D01*
X15709030Y-14515671D01*
X15700765Y-14492572D01*
X15694804Y-14468773D01*
X15691204Y-14444505D01*
X15690000Y-14420001D01*
X15690000Y-13519999D01*
X15691204Y-13495495D01*
X15694804Y-13471227D01*
X15700765Y-13447428D01*
X15709030Y-13424329D01*
X15719520Y-13402150D01*
X15732132Y-13381107D01*
X15746747Y-13361401D01*
X15763223Y-13343223D01*
X15781401Y-13326747D01*
X15801107Y-13312132D01*
X15822150Y-13299520D01*
X15844329Y-13289030D01*
X15867428Y-13280765D01*
X15891227Y-13274804D01*
X15915495Y-13271204D01*
X15939999Y-13270000D01*
X16590001Y-13270000D01*
X16614505Y-13271204D01*
G37*
G04 #@! TD.AperFunction*
G04 #@! TA.AperFunction,SMDPad,CuDef*
G36*
X16614505Y-16827204D02*
G01*
X16638773Y-16830804D01*
X16662572Y-16836765D01*
X16685671Y-16845030D01*
X16707850Y-16855520D01*
X16728893Y-16868132D01*
X16748599Y-16882747D01*
X16766777Y-16899223D01*
X16783253Y-16917401D01*
X16797868Y-16937107D01*
X16810480Y-16958150D01*
X16820970Y-16980329D01*
X16829235Y-17003428D01*
X16835196Y-17027227D01*
X16838796Y-17051495D01*
X16840000Y-17075999D01*
X16840000Y-17976001D01*
X16838796Y-18000505D01*
X16835196Y-18024773D01*
X16829235Y-18048572D01*
X16820970Y-18071671D01*
X16810480Y-18093850D01*
X16797868Y-18114893D01*
X16783253Y-18134599D01*
X16766777Y-18152777D01*
X16748599Y-18169253D01*
X16728893Y-18183868D01*
X16707850Y-18196480D01*
X16685671Y-18206970D01*
X16662572Y-18215235D01*
X16638773Y-18221196D01*
X16614505Y-18224796D01*
X16590001Y-18226000D01*
X15939999Y-18226000D01*
X15915495Y-18224796D01*
X15891227Y-18221196D01*
X15867428Y-18215235D01*
X15844329Y-18206970D01*
X15822150Y-18196480D01*
X15801107Y-18183868D01*
X15781401Y-18169253D01*
X15763223Y-18152777D01*
X15746747Y-18134599D01*
X15732132Y-18114893D01*
X15719520Y-18093850D01*
X15709030Y-18071671D01*
X15700765Y-18048572D01*
X15694804Y-18024773D01*
X15691204Y-18000505D01*
X15690000Y-17976001D01*
X15690000Y-17075999D01*
X15691204Y-17051495D01*
X15694804Y-17027227D01*
X15700765Y-17003428D01*
X15709030Y-16980329D01*
X15719520Y-16958150D01*
X15732132Y-16937107D01*
X15746747Y-16917401D01*
X15763223Y-16899223D01*
X15781401Y-16882747D01*
X15801107Y-16868132D01*
X15822150Y-16855520D01*
X15844329Y-16845030D01*
X15867428Y-16836765D01*
X15891227Y-16830804D01*
X15915495Y-16827204D01*
X15939999Y-16826000D01*
X16590001Y-16826000D01*
X16614505Y-16827204D01*
G37*
G04 #@! TD.AperFunction*
G04 #@! TA.AperFunction,SMDPad,CuDef*
G36*
X14564505Y-16827204D02*
G01*
X14588773Y-16830804D01*
X14612572Y-16836765D01*
X14635671Y-16845030D01*
X14657850Y-16855520D01*
X14678893Y-16868132D01*
X14698599Y-16882747D01*
X14716777Y-16899223D01*
X14733253Y-16917401D01*
X14747868Y-16937107D01*
X14760480Y-16958150D01*
X14770970Y-16980329D01*
X14779235Y-17003428D01*
X14785196Y-17027227D01*
X14788796Y-17051495D01*
X14790000Y-17075999D01*
X14790000Y-17976001D01*
X14788796Y-18000505D01*
X14785196Y-18024773D01*
X14779235Y-18048572D01*
X14770970Y-18071671D01*
X14760480Y-18093850D01*
X14747868Y-18114893D01*
X14733253Y-18134599D01*
X14716777Y-18152777D01*
X14698599Y-18169253D01*
X14678893Y-18183868D01*
X14657850Y-18196480D01*
X14635671Y-18206970D01*
X14612572Y-18215235D01*
X14588773Y-18221196D01*
X14564505Y-18224796D01*
X14540001Y-18226000D01*
X13889999Y-18226000D01*
X13865495Y-18224796D01*
X13841227Y-18221196D01*
X13817428Y-18215235D01*
X13794329Y-18206970D01*
X13772150Y-18196480D01*
X13751107Y-18183868D01*
X13731401Y-18169253D01*
X13713223Y-18152777D01*
X13696747Y-18134599D01*
X13682132Y-18114893D01*
X13669520Y-18093850D01*
X13659030Y-18071671D01*
X13650765Y-18048572D01*
X13644804Y-18024773D01*
X13641204Y-18000505D01*
X13640000Y-17976001D01*
X13640000Y-17075999D01*
X13641204Y-17051495D01*
X13644804Y-17027227D01*
X13650765Y-17003428D01*
X13659030Y-16980329D01*
X13669520Y-16958150D01*
X13682132Y-16937107D01*
X13696747Y-16917401D01*
X13713223Y-16899223D01*
X13731401Y-16882747D01*
X13751107Y-16868132D01*
X13772150Y-16855520D01*
X13794329Y-16845030D01*
X13817428Y-16836765D01*
X13841227Y-16830804D01*
X13865495Y-16827204D01*
X13889999Y-16826000D01*
X14540001Y-16826000D01*
X14564505Y-16827204D01*
G37*
G04 #@! TD.AperFunction*
D13*
G36*
X14605000Y-3641895D02*
G01*
X14589482Y-3637188D01*
X14465000Y-3624928D01*
X14419250Y-3628000D01*
X14260500Y-3786750D01*
X14260500Y-5080000D01*
X14280500Y-5080000D01*
X14280500Y-6096000D01*
X14260500Y-6096000D01*
X14260500Y-7389250D01*
X14419250Y-7548000D01*
X14465000Y-7551072D01*
X14589482Y-7538812D01*
X14605000Y-7534105D01*
X14605000Y-21184000D01*
X5363392Y-21184000D01*
X4551751Y-21111563D01*
X3794226Y-20904328D01*
X3085373Y-20566221D01*
X2447590Y-20107928D01*
X1901054Y-19543945D01*
X1489230Y-18931086D01*
X3631335Y-18931086D01*
X4022581Y-19370476D01*
X4714698Y-19660703D01*
X5450136Y-19810328D01*
X6200634Y-19813600D01*
X6937349Y-19670395D01*
X7631972Y-19386216D01*
X7661419Y-19370476D01*
X8052665Y-18931086D01*
X7337626Y-18216046D01*
X13002006Y-18216046D01*
X13012323Y-18340704D01*
X13046761Y-18460954D01*
X13103997Y-18572174D01*
X13181831Y-18670092D01*
X13277273Y-18750943D01*
X13386654Y-18811621D01*
X13505771Y-18849794D01*
X13608250Y-18861000D01*
X13767000Y-18702250D01*
X13767000Y-18034000D01*
X13163750Y-18034000D01*
X13005000Y-18192750D01*
X13002006Y-18216046D01*
X7337626Y-18216046D01*
X5842000Y-16720420D01*
X3631335Y-18931086D01*
X1489230Y-18931086D01*
X1463022Y-18892085D01*
X1147349Y-18172963D01*
X962794Y-17404232D01*
X914000Y-16739792D01*
X914000Y-16360634D01*
X2030400Y-16360634D01*
X2173605Y-17097349D01*
X2457784Y-17791972D01*
X2473524Y-17821419D01*
X2912914Y-18212665D01*
X5123580Y-16002000D01*
X6560420Y-16002000D01*
X8771086Y-18212665D01*
X9210476Y-17821419D01*
X9500703Y-17129302D01*
X9560384Y-16835954D01*
X13002006Y-16835954D01*
X13005000Y-16859250D01*
X13163750Y-17018000D01*
X13767000Y-17018000D01*
X13767000Y-16349750D01*
X13608250Y-16191000D01*
X13505771Y-16202206D01*
X13386654Y-16240379D01*
X13277273Y-16301057D01*
X13181831Y-16381908D01*
X13103997Y-16479826D01*
X13046761Y-16591046D01*
X13012323Y-16711296D01*
X13002006Y-16835954D01*
X9560384Y-16835954D01*
X9650328Y-16393864D01*
X9653600Y-15643366D01*
X9510395Y-14906651D01*
X9409506Y-14660046D01*
X13002006Y-14660046D01*
X13012323Y-14784704D01*
X13046761Y-14904954D01*
X13103997Y-15016174D01*
X13181831Y-15114092D01*
X13277273Y-15194943D01*
X13386654Y-15255621D01*
X13505771Y-15293794D01*
X13608250Y-15305000D01*
X13767000Y-15146250D01*
X13767000Y-14478000D01*
X13163750Y-14478000D01*
X13005000Y-14636750D01*
X13002006Y-14660046D01*
X9409506Y-14660046D01*
X9226216Y-14212028D01*
X9210476Y-14182581D01*
X8771086Y-13791335D01*
X6560420Y-16002000D01*
X5123580Y-16002000D01*
X2912914Y-13791335D01*
X2473524Y-14182581D01*
X2183297Y-14874698D01*
X2033672Y-15610136D01*
X2030400Y-16360634D01*
X914000Y-16360634D01*
X914000Y-13072914D01*
X3631335Y-13072914D01*
X5842000Y-15283580D01*
X7845625Y-13279954D01*
X13002006Y-13279954D01*
X13005000Y-13303250D01*
X13163750Y-13462000D01*
X13767000Y-13462000D01*
X13767000Y-12793750D01*
X13608250Y-12635000D01*
X13505771Y-12646206D01*
X13386654Y-12684379D01*
X13277273Y-12745057D01*
X13181831Y-12825908D01*
X13103997Y-12923826D01*
X13046761Y-13035046D01*
X13012323Y-13155296D01*
X13002006Y-13279954D01*
X7845625Y-13279954D01*
X8052665Y-13072914D01*
X7661419Y-12633524D01*
X6969302Y-12343297D01*
X6233864Y-12193672D01*
X5483366Y-12190400D01*
X4746651Y-12333605D01*
X4052028Y-12617784D01*
X4022581Y-12633524D01*
X3631335Y-13072914D01*
X914000Y-13072914D01*
X914000Y-10596046D01*
X13002006Y-10596046D01*
X13012323Y-10720704D01*
X13046761Y-10840954D01*
X13103997Y-10952174D01*
X13181831Y-11050092D01*
X13277273Y-11130943D01*
X13386654Y-11191621D01*
X13505771Y-11229794D01*
X13608250Y-11241000D01*
X13767000Y-11082250D01*
X13767000Y-10414000D01*
X13163750Y-10414000D01*
X13005000Y-10572750D01*
X13002006Y-10596046D01*
X914000Y-10596046D01*
X914000Y-7800682D01*
X1098728Y-8124751D01*
X1775329Y-8904896D01*
X2591128Y-9538052D01*
X3514774Y-9999888D01*
X4510773Y-10272655D01*
X5334000Y-10188690D01*
X5334000Y-5588000D01*
X6350000Y-5588000D01*
X6350000Y-10188690D01*
X7173227Y-10272655D01*
X8169226Y-9999888D01*
X9092872Y-9538052D01*
X9507883Y-9215954D01*
X13002006Y-9215954D01*
X13005000Y-9239250D01*
X13163750Y-9398000D01*
X13767000Y-9398000D01*
X13767000Y-8729750D01*
X13608250Y-8571000D01*
X13505771Y-8582206D01*
X13386654Y-8620379D01*
X13277273Y-8681057D01*
X13181831Y-8761908D01*
X13103997Y-8859826D01*
X13046761Y-8971046D01*
X13012323Y-9091296D01*
X13002006Y-9215954D01*
X9507883Y-9215954D01*
X9908671Y-8904896D01*
X10585272Y-8124751D01*
X11096674Y-7227598D01*
X11207893Y-6913000D01*
X12401928Y-6913000D01*
X12414188Y-7037482D01*
X12450498Y-7157180D01*
X12509463Y-7267494D01*
X12588815Y-7364185D01*
X12685506Y-7443537D01*
X12795820Y-7502502D01*
X12915518Y-7538812D01*
X13040000Y-7551072D01*
X13085750Y-7548000D01*
X13244500Y-7389250D01*
X13244500Y-6096000D01*
X12563750Y-6096000D01*
X12405000Y-6254750D01*
X12401928Y-6913000D01*
X11207893Y-6913000D01*
X11388406Y-6402395D01*
X11372945Y-5588000D01*
X6350000Y-5588000D01*
X5334000Y-5588000D01*
X5314000Y-5588000D01*
X5314000Y-4572000D01*
X5334000Y-4572000D01*
X5334000Y-4552000D01*
X6350000Y-4552000D01*
X6350000Y-4572000D01*
X11372945Y-4572000D01*
X11378811Y-4263000D01*
X12401928Y-4263000D01*
X12405000Y-4921250D01*
X12563750Y-5080000D01*
X13244500Y-5080000D01*
X13244500Y-3786750D01*
X13085750Y-3628000D01*
X13040000Y-3624928D01*
X12915518Y-3637188D01*
X12795820Y-3673498D01*
X12685506Y-3732463D01*
X12588815Y-3811815D01*
X12509463Y-3908506D01*
X12450498Y-4018820D01*
X12414188Y-4138518D01*
X12401928Y-4263000D01*
X11378811Y-4263000D01*
X11388406Y-3757605D01*
X11096674Y-2932402D01*
X10585272Y-2035249D01*
X9908671Y-1255104D01*
X9141901Y-660000D01*
X14605000Y-660000D01*
X14605000Y-3641895D01*
G37*
X14605000Y-3641895D02*
X14589482Y-3637188D01*
X14465000Y-3624928D01*
X14419250Y-3628000D01*
X14260500Y-3786750D01*
X14260500Y-5080000D01*
X14280500Y-5080000D01*
X14280500Y-6096000D01*
X14260500Y-6096000D01*
X14260500Y-7389250D01*
X14419250Y-7548000D01*
X14465000Y-7551072D01*
X14589482Y-7538812D01*
X14605000Y-7534105D01*
X14605000Y-21184000D01*
X5363392Y-21184000D01*
X4551751Y-21111563D01*
X3794226Y-20904328D01*
X3085373Y-20566221D01*
X2447590Y-20107928D01*
X1901054Y-19543945D01*
X1489230Y-18931086D01*
X3631335Y-18931086D01*
X4022581Y-19370476D01*
X4714698Y-19660703D01*
X5450136Y-19810328D01*
X6200634Y-19813600D01*
X6937349Y-19670395D01*
X7631972Y-19386216D01*
X7661419Y-19370476D01*
X8052665Y-18931086D01*
X7337626Y-18216046D01*
X13002006Y-18216046D01*
X13012323Y-18340704D01*
X13046761Y-18460954D01*
X13103997Y-18572174D01*
X13181831Y-18670092D01*
X13277273Y-18750943D01*
X13386654Y-18811621D01*
X13505771Y-18849794D01*
X13608250Y-18861000D01*
X13767000Y-18702250D01*
X13767000Y-18034000D01*
X13163750Y-18034000D01*
X13005000Y-18192750D01*
X13002006Y-18216046D01*
X7337626Y-18216046D01*
X5842000Y-16720420D01*
X3631335Y-18931086D01*
X1489230Y-18931086D01*
X1463022Y-18892085D01*
X1147349Y-18172963D01*
X962794Y-17404232D01*
X914000Y-16739792D01*
X914000Y-16360634D01*
X2030400Y-16360634D01*
X2173605Y-17097349D01*
X2457784Y-17791972D01*
X2473524Y-17821419D01*
X2912914Y-18212665D01*
X5123580Y-16002000D01*
X6560420Y-16002000D01*
X8771086Y-18212665D01*
X9210476Y-17821419D01*
X9500703Y-17129302D01*
X9560384Y-16835954D01*
X13002006Y-16835954D01*
X13005000Y-16859250D01*
X13163750Y-17018000D01*
X13767000Y-17018000D01*
X13767000Y-16349750D01*
X13608250Y-16191000D01*
X13505771Y-16202206D01*
X13386654Y-16240379D01*
X13277273Y-16301057D01*
X13181831Y-16381908D01*
X13103997Y-16479826D01*
X13046761Y-16591046D01*
X13012323Y-16711296D01*
X13002006Y-16835954D01*
X9560384Y-16835954D01*
X9650328Y-16393864D01*
X9653600Y-15643366D01*
X9510395Y-14906651D01*
X9409506Y-14660046D01*
X13002006Y-14660046D01*
X13012323Y-14784704D01*
X13046761Y-14904954D01*
X13103997Y-15016174D01*
X13181831Y-15114092D01*
X13277273Y-15194943D01*
X13386654Y-15255621D01*
X13505771Y-15293794D01*
X13608250Y-15305000D01*
X13767000Y-15146250D01*
X13767000Y-14478000D01*
X13163750Y-14478000D01*
X13005000Y-14636750D01*
X13002006Y-14660046D01*
X9409506Y-14660046D01*
X9226216Y-14212028D01*
X9210476Y-14182581D01*
X8771086Y-13791335D01*
X6560420Y-16002000D01*
X5123580Y-16002000D01*
X2912914Y-13791335D01*
X2473524Y-14182581D01*
X2183297Y-14874698D01*
X2033672Y-15610136D01*
X2030400Y-16360634D01*
X914000Y-16360634D01*
X914000Y-13072914D01*
X3631335Y-13072914D01*
X5842000Y-15283580D01*
X7845625Y-13279954D01*
X13002006Y-13279954D01*
X13005000Y-13303250D01*
X13163750Y-13462000D01*
X13767000Y-13462000D01*
X13767000Y-12793750D01*
X13608250Y-12635000D01*
X13505771Y-12646206D01*
X13386654Y-12684379D01*
X13277273Y-12745057D01*
X13181831Y-12825908D01*
X13103997Y-12923826D01*
X13046761Y-13035046D01*
X13012323Y-13155296D01*
X13002006Y-13279954D01*
X7845625Y-13279954D01*
X8052665Y-13072914D01*
X7661419Y-12633524D01*
X6969302Y-12343297D01*
X6233864Y-12193672D01*
X5483366Y-12190400D01*
X4746651Y-12333605D01*
X4052028Y-12617784D01*
X4022581Y-12633524D01*
X3631335Y-13072914D01*
X914000Y-13072914D01*
X914000Y-10596046D01*
X13002006Y-10596046D01*
X13012323Y-10720704D01*
X13046761Y-10840954D01*
X13103997Y-10952174D01*
X13181831Y-11050092D01*
X13277273Y-11130943D01*
X13386654Y-11191621D01*
X13505771Y-11229794D01*
X13608250Y-11241000D01*
X13767000Y-11082250D01*
X13767000Y-10414000D01*
X13163750Y-10414000D01*
X13005000Y-10572750D01*
X13002006Y-10596046D01*
X914000Y-10596046D01*
X914000Y-7800682D01*
X1098728Y-8124751D01*
X1775329Y-8904896D01*
X2591128Y-9538052D01*
X3514774Y-9999888D01*
X4510773Y-10272655D01*
X5334000Y-10188690D01*
X5334000Y-5588000D01*
X6350000Y-5588000D01*
X6350000Y-10188690D01*
X7173227Y-10272655D01*
X8169226Y-9999888D01*
X9092872Y-9538052D01*
X9507883Y-9215954D01*
X13002006Y-9215954D01*
X13005000Y-9239250D01*
X13163750Y-9398000D01*
X13767000Y-9398000D01*
X13767000Y-8729750D01*
X13608250Y-8571000D01*
X13505771Y-8582206D01*
X13386654Y-8620379D01*
X13277273Y-8681057D01*
X13181831Y-8761908D01*
X13103997Y-8859826D01*
X13046761Y-8971046D01*
X13012323Y-9091296D01*
X13002006Y-9215954D01*
X9507883Y-9215954D01*
X9908671Y-8904896D01*
X10585272Y-8124751D01*
X11096674Y-7227598D01*
X11207893Y-6913000D01*
X12401928Y-6913000D01*
X12414188Y-7037482D01*
X12450498Y-7157180D01*
X12509463Y-7267494D01*
X12588815Y-7364185D01*
X12685506Y-7443537D01*
X12795820Y-7502502D01*
X12915518Y-7538812D01*
X13040000Y-7551072D01*
X13085750Y-7548000D01*
X13244500Y-7389250D01*
X13244500Y-6096000D01*
X12563750Y-6096000D01*
X12405000Y-6254750D01*
X12401928Y-6913000D01*
X11207893Y-6913000D01*
X11388406Y-6402395D01*
X11372945Y-5588000D01*
X6350000Y-5588000D01*
X5334000Y-5588000D01*
X5314000Y-5588000D01*
X5314000Y-4572000D01*
X5334000Y-4572000D01*
X5334000Y-4552000D01*
X6350000Y-4552000D01*
X6350000Y-4572000D01*
X11372945Y-4572000D01*
X11378811Y-4263000D01*
X12401928Y-4263000D01*
X12405000Y-4921250D01*
X12563750Y-5080000D01*
X13244500Y-5080000D01*
X13244500Y-3786750D01*
X13085750Y-3628000D01*
X13040000Y-3624928D01*
X12915518Y-3637188D01*
X12795820Y-3673498D01*
X12685506Y-3732463D01*
X12588815Y-3811815D01*
X12509463Y-3908506D01*
X12450498Y-4018820D01*
X12414188Y-4138518D01*
X12401928Y-4263000D01*
X11378811Y-4263000D01*
X11388406Y-3757605D01*
X11096674Y-2932402D01*
X10585272Y-2035249D01*
X9908671Y-1255104D01*
X9141901Y-660000D01*
X14605000Y-660000D01*
X14605000Y-3641895D01*
G36*
X20825329Y-1255104D02*
G01*
X20148728Y-2035249D01*
X19637326Y-2932402D01*
X19345594Y-3757605D01*
X19361055Y-4572000D01*
X24384000Y-4572000D01*
X24384000Y-4552000D01*
X25400000Y-4552000D01*
X25400000Y-4572000D01*
X25420000Y-4572000D01*
X25420000Y-5588000D01*
X25400000Y-5588000D01*
X25400000Y-10188690D01*
X26223227Y-10272655D01*
X27219226Y-9999888D01*
X28142872Y-9538052D01*
X28958671Y-8904896D01*
X29635272Y-8124751D01*
X29821477Y-7798092D01*
X29826330Y-16734783D01*
X29753808Y-17547372D01*
X29546276Y-18305984D01*
X29207682Y-19015862D01*
X28748738Y-19654550D01*
X28183938Y-20201878D01*
X27531142Y-20640539D01*
X26810988Y-20956665D01*
X26033095Y-21143420D01*
X25621539Y-21184000D01*
X15875000Y-21184000D01*
X15875000Y-18931086D01*
X22681335Y-18931086D01*
X23072581Y-19370476D01*
X23764698Y-19660703D01*
X24500136Y-19810328D01*
X25250634Y-19813600D01*
X25987349Y-19670395D01*
X26681972Y-19386216D01*
X26711419Y-19370476D01*
X27102665Y-18931086D01*
X24892000Y-16720420D01*
X22681335Y-18931086D01*
X15875000Y-18931086D01*
X15875000Y-18034000D01*
X16713000Y-18034000D01*
X16713000Y-18702250D01*
X16871750Y-18861000D01*
X16974229Y-18849794D01*
X17093346Y-18811621D01*
X17202727Y-18750943D01*
X17298169Y-18670092D01*
X17376003Y-18572174D01*
X17433239Y-18460954D01*
X17467677Y-18340704D01*
X17477994Y-18216046D01*
X17475000Y-18192750D01*
X17316250Y-18034000D01*
X16713000Y-18034000D01*
X15875000Y-18034000D01*
X15875000Y-16349750D01*
X16713000Y-16349750D01*
X16713000Y-17018000D01*
X17316250Y-17018000D01*
X17475000Y-16859250D01*
X17477994Y-16835954D01*
X17467677Y-16711296D01*
X17433239Y-16591046D01*
X17376003Y-16479826D01*
X17298169Y-16381908D01*
X17273056Y-16360634D01*
X21080400Y-16360634D01*
X21223605Y-17097349D01*
X21507784Y-17791972D01*
X21523524Y-17821419D01*
X21962914Y-18212665D01*
X24173580Y-16002000D01*
X25610420Y-16002000D01*
X27821086Y-18212665D01*
X28260476Y-17821419D01*
X28550703Y-17129302D01*
X28700328Y-16393864D01*
X28703600Y-15643366D01*
X28560395Y-14906651D01*
X28276216Y-14212028D01*
X28260476Y-14182581D01*
X27821086Y-13791335D01*
X25610420Y-16002000D01*
X24173580Y-16002000D01*
X21962914Y-13791335D01*
X21523524Y-14182581D01*
X21233297Y-14874698D01*
X21083672Y-15610136D01*
X21080400Y-16360634D01*
X17273056Y-16360634D01*
X17202727Y-16301057D01*
X17093346Y-16240379D01*
X16974229Y-16202206D01*
X16871750Y-16191000D01*
X16713000Y-16349750D01*
X15875000Y-16349750D01*
X15875000Y-14478000D01*
X16713000Y-14478000D01*
X16713000Y-15146250D01*
X16871750Y-15305000D01*
X16974229Y-15293794D01*
X17093346Y-15255621D01*
X17202727Y-15194943D01*
X17298169Y-15114092D01*
X17376003Y-15016174D01*
X17433239Y-14904954D01*
X17467677Y-14784704D01*
X17477994Y-14660046D01*
X17475000Y-14636750D01*
X17316250Y-14478000D01*
X16713000Y-14478000D01*
X15875000Y-14478000D01*
X15875000Y-12793750D01*
X16713000Y-12793750D01*
X16713000Y-13462000D01*
X17316250Y-13462000D01*
X17475000Y-13303250D01*
X17477994Y-13279954D01*
X17467677Y-13155296D01*
X17444084Y-13072914D01*
X22681335Y-13072914D01*
X24892000Y-15283580D01*
X27102665Y-13072914D01*
X26711419Y-12633524D01*
X26019302Y-12343297D01*
X25283864Y-12193672D01*
X24533366Y-12190400D01*
X23796651Y-12333605D01*
X23102028Y-12617784D01*
X23072581Y-12633524D01*
X22681335Y-13072914D01*
X17444084Y-13072914D01*
X17433239Y-13035046D01*
X17376003Y-12923826D01*
X17298169Y-12825908D01*
X17202727Y-12745057D01*
X17093346Y-12684379D01*
X16974229Y-12646206D01*
X16871750Y-12635000D01*
X16713000Y-12793750D01*
X15875000Y-12793750D01*
X15875000Y-10414000D01*
X16713000Y-10414000D01*
X16713000Y-11082250D01*
X16871750Y-11241000D01*
X16974229Y-11229794D01*
X17093346Y-11191621D01*
X17202727Y-11130943D01*
X17298169Y-11050092D01*
X17376003Y-10952174D01*
X17433239Y-10840954D01*
X17467677Y-10720704D01*
X17477994Y-10596046D01*
X17475000Y-10572750D01*
X17316250Y-10414000D01*
X16713000Y-10414000D01*
X15875000Y-10414000D01*
X15875000Y-8729750D01*
X16713000Y-8729750D01*
X16713000Y-9398000D01*
X17316250Y-9398000D01*
X17475000Y-9239250D01*
X17477994Y-9215954D01*
X17467677Y-9091296D01*
X17433239Y-8971046D01*
X17376003Y-8859826D01*
X17298169Y-8761908D01*
X17202727Y-8681057D01*
X17093346Y-8620379D01*
X16974229Y-8582206D01*
X16871750Y-8571000D01*
X16713000Y-8729750D01*
X15875000Y-8729750D01*
X15875000Y-7534105D01*
X15890518Y-7538812D01*
X16015000Y-7551072D01*
X16060750Y-7548000D01*
X16219500Y-7389250D01*
X16219500Y-6096000D01*
X17235500Y-6096000D01*
X17235500Y-7389250D01*
X17394250Y-7548000D01*
X17440000Y-7551072D01*
X17564482Y-7538812D01*
X17684180Y-7502502D01*
X17794494Y-7443537D01*
X17891185Y-7364185D01*
X17970537Y-7267494D01*
X18029502Y-7157180D01*
X18065812Y-7037482D01*
X18078072Y-6913000D01*
X18075690Y-6402395D01*
X19345594Y-6402395D01*
X19637326Y-7227598D01*
X20148728Y-8124751D01*
X20825329Y-8904896D01*
X21641128Y-9538052D01*
X22564774Y-9999888D01*
X23560773Y-10272655D01*
X24384000Y-10188690D01*
X24384000Y-5588000D01*
X19361055Y-5588000D01*
X19345594Y-6402395D01*
X18075690Y-6402395D01*
X18075000Y-6254750D01*
X17916250Y-6096000D01*
X17235500Y-6096000D01*
X16219500Y-6096000D01*
X16199500Y-6096000D01*
X16199500Y-5080000D01*
X16219500Y-5080000D01*
X16219500Y-3786750D01*
X17235500Y-3786750D01*
X17235500Y-5080000D01*
X17916250Y-5080000D01*
X18075000Y-4921250D01*
X18078072Y-4263000D01*
X18065812Y-4138518D01*
X18029502Y-4018820D01*
X17970537Y-3908506D01*
X17891185Y-3811815D01*
X17794494Y-3732463D01*
X17684180Y-3673498D01*
X17564482Y-3637188D01*
X17440000Y-3624928D01*
X17394250Y-3628000D01*
X17235500Y-3786750D01*
X16219500Y-3786750D01*
X16060750Y-3628000D01*
X16015000Y-3624928D01*
X15890518Y-3637188D01*
X15875000Y-3641895D01*
X15875000Y-660000D01*
X21592099Y-660000D01*
X20825329Y-1255104D01*
G37*
X20825329Y-1255104D02*
X20148728Y-2035249D01*
X19637326Y-2932402D01*
X19345594Y-3757605D01*
X19361055Y-4572000D01*
X24384000Y-4572000D01*
X24384000Y-4552000D01*
X25400000Y-4552000D01*
X25400000Y-4572000D01*
X25420000Y-4572000D01*
X25420000Y-5588000D01*
X25400000Y-5588000D01*
X25400000Y-10188690D01*
X26223227Y-10272655D01*
X27219226Y-9999888D01*
X28142872Y-9538052D01*
X28958671Y-8904896D01*
X29635272Y-8124751D01*
X29821477Y-7798092D01*
X29826330Y-16734783D01*
X29753808Y-17547372D01*
X29546276Y-18305984D01*
X29207682Y-19015862D01*
X28748738Y-19654550D01*
X28183938Y-20201878D01*
X27531142Y-20640539D01*
X26810988Y-20956665D01*
X26033095Y-21143420D01*
X25621539Y-21184000D01*
X15875000Y-21184000D01*
X15875000Y-18931086D01*
X22681335Y-18931086D01*
X23072581Y-19370476D01*
X23764698Y-19660703D01*
X24500136Y-19810328D01*
X25250634Y-19813600D01*
X25987349Y-19670395D01*
X26681972Y-19386216D01*
X26711419Y-19370476D01*
X27102665Y-18931086D01*
X24892000Y-16720420D01*
X22681335Y-18931086D01*
X15875000Y-18931086D01*
X15875000Y-18034000D01*
X16713000Y-18034000D01*
X16713000Y-18702250D01*
X16871750Y-18861000D01*
X16974229Y-18849794D01*
X17093346Y-18811621D01*
X17202727Y-18750943D01*
X17298169Y-18670092D01*
X17376003Y-18572174D01*
X17433239Y-18460954D01*
X17467677Y-18340704D01*
X17477994Y-18216046D01*
X17475000Y-18192750D01*
X17316250Y-18034000D01*
X16713000Y-18034000D01*
X15875000Y-18034000D01*
X15875000Y-16349750D01*
X16713000Y-16349750D01*
X16713000Y-17018000D01*
X17316250Y-17018000D01*
X17475000Y-16859250D01*
X17477994Y-16835954D01*
X17467677Y-16711296D01*
X17433239Y-16591046D01*
X17376003Y-16479826D01*
X17298169Y-16381908D01*
X17273056Y-16360634D01*
X21080400Y-16360634D01*
X21223605Y-17097349D01*
X21507784Y-17791972D01*
X21523524Y-17821419D01*
X21962914Y-18212665D01*
X24173580Y-16002000D01*
X25610420Y-16002000D01*
X27821086Y-18212665D01*
X28260476Y-17821419D01*
X28550703Y-17129302D01*
X28700328Y-16393864D01*
X28703600Y-15643366D01*
X28560395Y-14906651D01*
X28276216Y-14212028D01*
X28260476Y-14182581D01*
X27821086Y-13791335D01*
X25610420Y-16002000D01*
X24173580Y-16002000D01*
X21962914Y-13791335D01*
X21523524Y-14182581D01*
X21233297Y-14874698D01*
X21083672Y-15610136D01*
X21080400Y-16360634D01*
X17273056Y-16360634D01*
X17202727Y-16301057D01*
X17093346Y-16240379D01*
X16974229Y-16202206D01*
X16871750Y-16191000D01*
X16713000Y-16349750D01*
X15875000Y-16349750D01*
X15875000Y-14478000D01*
X16713000Y-14478000D01*
X16713000Y-15146250D01*
X16871750Y-15305000D01*
X16974229Y-15293794D01*
X17093346Y-15255621D01*
X17202727Y-15194943D01*
X17298169Y-15114092D01*
X17376003Y-15016174D01*
X17433239Y-14904954D01*
X17467677Y-14784704D01*
X17477994Y-14660046D01*
X17475000Y-14636750D01*
X17316250Y-14478000D01*
X16713000Y-14478000D01*
X15875000Y-14478000D01*
X15875000Y-12793750D01*
X16713000Y-12793750D01*
X16713000Y-13462000D01*
X17316250Y-13462000D01*
X17475000Y-13303250D01*
X17477994Y-13279954D01*
X17467677Y-13155296D01*
X17444084Y-13072914D01*
X22681335Y-13072914D01*
X24892000Y-15283580D01*
X27102665Y-13072914D01*
X26711419Y-12633524D01*
X26019302Y-12343297D01*
X25283864Y-12193672D01*
X24533366Y-12190400D01*
X23796651Y-12333605D01*
X23102028Y-12617784D01*
X23072581Y-12633524D01*
X22681335Y-13072914D01*
X17444084Y-13072914D01*
X17433239Y-13035046D01*
X17376003Y-12923826D01*
X17298169Y-12825908D01*
X17202727Y-12745057D01*
X17093346Y-12684379D01*
X16974229Y-12646206D01*
X16871750Y-12635000D01*
X16713000Y-12793750D01*
X15875000Y-12793750D01*
X15875000Y-10414000D01*
X16713000Y-10414000D01*
X16713000Y-11082250D01*
X16871750Y-11241000D01*
X16974229Y-11229794D01*
X17093346Y-11191621D01*
X17202727Y-11130943D01*
X17298169Y-11050092D01*
X17376003Y-10952174D01*
X17433239Y-10840954D01*
X17467677Y-10720704D01*
X17477994Y-10596046D01*
X17475000Y-10572750D01*
X17316250Y-10414000D01*
X16713000Y-10414000D01*
X15875000Y-10414000D01*
X15875000Y-8729750D01*
X16713000Y-8729750D01*
X16713000Y-9398000D01*
X17316250Y-9398000D01*
X17475000Y-9239250D01*
X17477994Y-9215954D01*
X17467677Y-9091296D01*
X17433239Y-8971046D01*
X17376003Y-8859826D01*
X17298169Y-8761908D01*
X17202727Y-8681057D01*
X17093346Y-8620379D01*
X16974229Y-8582206D01*
X16871750Y-8571000D01*
X16713000Y-8729750D01*
X15875000Y-8729750D01*
X15875000Y-7534105D01*
X15890518Y-7538812D01*
X16015000Y-7551072D01*
X16060750Y-7548000D01*
X16219500Y-7389250D01*
X16219500Y-6096000D01*
X17235500Y-6096000D01*
X17235500Y-7389250D01*
X17394250Y-7548000D01*
X17440000Y-7551072D01*
X17564482Y-7538812D01*
X17684180Y-7502502D01*
X17794494Y-7443537D01*
X17891185Y-7364185D01*
X17970537Y-7267494D01*
X18029502Y-7157180D01*
X18065812Y-7037482D01*
X18078072Y-6913000D01*
X18075690Y-6402395D01*
X19345594Y-6402395D01*
X19637326Y-7227598D01*
X20148728Y-8124751D01*
X20825329Y-8904896D01*
X21641128Y-9538052D01*
X22564774Y-9999888D01*
X23560773Y-10272655D01*
X24384000Y-10188690D01*
X24384000Y-5588000D01*
X19361055Y-5588000D01*
X19345594Y-6402395D01*
X18075690Y-6402395D01*
X18075000Y-6254750D01*
X17916250Y-6096000D01*
X17235500Y-6096000D01*
X16219500Y-6096000D01*
X16199500Y-6096000D01*
X16199500Y-5080000D01*
X16219500Y-5080000D01*
X16219500Y-3786750D01*
X17235500Y-3786750D01*
X17235500Y-5080000D01*
X17916250Y-5080000D01*
X18075000Y-4921250D01*
X18078072Y-4263000D01*
X18065812Y-4138518D01*
X18029502Y-4018820D01*
X17970537Y-3908506D01*
X17891185Y-3811815D01*
X17794494Y-3732463D01*
X17684180Y-3673498D01*
X17564482Y-3637188D01*
X17440000Y-3624928D01*
X17394250Y-3628000D01*
X17235500Y-3786750D01*
X16219500Y-3786750D01*
X16060750Y-3628000D01*
X16015000Y-3624928D01*
X15890518Y-3637188D01*
X15875000Y-3641895D01*
X15875000Y-660000D01*
X21592099Y-660000D01*
X20825329Y-1255104D01*
M02*
