G04 #@! TF.GenerationSoftware,KiCad,Pcbnew,(5.1.5)-3*
G04 #@! TF.CreationDate,2021-08-01T09:21:07-04:00*
G04 #@! TF.ProjectId,BindingPost_PCB,42696e64-696e-4675-906f-73745f504342,rev?*
G04 #@! TF.SameCoordinates,Original*
G04 #@! TF.FileFunction,Soldermask,Bot*
G04 #@! TF.FilePolarity,Negative*
%FSLAX46Y46*%
G04 Gerber Fmt 4.6, Leading zero omitted, Abs format (unit mm)*
G04 Created by KiCad (PCBNEW (5.1.5)-3) date 2021-08-01 09:21:07*
%MOMM*%
%LPD*%
G04 APERTURE LIST*
%ADD10C,0.100000*%
G04 APERTURE END LIST*
D10*
G36*
X25832988Y-12899973D02*
G01*
X26420082Y-13143155D01*
X26420084Y-13143156D01*
X26948455Y-13496202D01*
X27397798Y-13945545D01*
X27750844Y-14473916D01*
X27750845Y-14473918D01*
X27994027Y-15061012D01*
X28118000Y-15684265D01*
X28118000Y-16319735D01*
X27994027Y-16942988D01*
X27750845Y-17530082D01*
X27750844Y-17530084D01*
X27397798Y-18058455D01*
X26948455Y-18507798D01*
X26420084Y-18860844D01*
X26420083Y-18860845D01*
X26420082Y-18860845D01*
X25832988Y-19104027D01*
X25209735Y-19228000D01*
X24574265Y-19228000D01*
X23951012Y-19104027D01*
X23363918Y-18860845D01*
X23363917Y-18860845D01*
X23363916Y-18860844D01*
X22835545Y-18507798D01*
X22386202Y-18058455D01*
X22033156Y-17530084D01*
X22033155Y-17530082D01*
X21789973Y-16942988D01*
X21666000Y-16319735D01*
X21666000Y-15684265D01*
X21789973Y-15061012D01*
X22033155Y-14473918D01*
X22033156Y-14473916D01*
X22386202Y-13945545D01*
X22835545Y-13496202D01*
X23363916Y-13143156D01*
X23363918Y-13143155D01*
X23951012Y-12899973D01*
X24574265Y-12776000D01*
X25209735Y-12776000D01*
X25832988Y-12899973D01*
G37*
G36*
X6782988Y-12899973D02*
G01*
X7370082Y-13143155D01*
X7370084Y-13143156D01*
X7898455Y-13496202D01*
X8347798Y-13945545D01*
X8700844Y-14473916D01*
X8700845Y-14473918D01*
X8944027Y-15061012D01*
X9068000Y-15684265D01*
X9068000Y-16319735D01*
X8944027Y-16942988D01*
X8700845Y-17530082D01*
X8700844Y-17530084D01*
X8347798Y-18058455D01*
X7898455Y-18507798D01*
X7370084Y-18860844D01*
X7370083Y-18860845D01*
X7370082Y-18860845D01*
X6782988Y-19104027D01*
X6159735Y-19228000D01*
X5524265Y-19228000D01*
X4901012Y-19104027D01*
X4313918Y-18860845D01*
X4313917Y-18860845D01*
X4313916Y-18860844D01*
X3785545Y-18507798D01*
X3336202Y-18058455D01*
X2983156Y-17530084D01*
X2983155Y-17530082D01*
X2739973Y-16942988D01*
X2616000Y-16319735D01*
X2616000Y-15684265D01*
X2739973Y-15061012D01*
X2983155Y-14473918D01*
X2983156Y-14473916D01*
X3336202Y-13945545D01*
X3785545Y-13496202D01*
X4313916Y-13143156D01*
X4313918Y-13143155D01*
X4901012Y-12899973D01*
X5524265Y-12776000D01*
X6159735Y-12776000D01*
X6782988Y-12899973D01*
G37*
G36*
X26025717Y-438707D02*
G01*
X26255214Y-461310D01*
X27138623Y-729290D01*
X27138626Y-729291D01*
X27952773Y-1164461D01*
X27952776Y-1164463D01*
X27952777Y-1164464D01*
X28666390Y-1750110D01*
X29252036Y-2463723D01*
X29252039Y-2463727D01*
X29687209Y-3277874D01*
X29955190Y-4161287D01*
X30045675Y-5080000D01*
X29955190Y-5998713D01*
X29687209Y-6882126D01*
X29252039Y-7696273D01*
X29252037Y-7696276D01*
X29252036Y-7696277D01*
X28666390Y-8409890D01*
X27952777Y-8995536D01*
X27952773Y-8995539D01*
X27138626Y-9430709D01*
X27138623Y-9430710D01*
X26255214Y-9698690D01*
X26025717Y-9721293D01*
X25566726Y-9766500D01*
X24217274Y-9766500D01*
X23758283Y-9721293D01*
X23528786Y-9698690D01*
X22645377Y-9430710D01*
X22645374Y-9430709D01*
X21831227Y-8995539D01*
X21831223Y-8995536D01*
X21117610Y-8409890D01*
X20531964Y-7696277D01*
X20531963Y-7696276D01*
X20531961Y-7696273D01*
X20096791Y-6882126D01*
X19828810Y-5998713D01*
X19738325Y-5080000D01*
X19828810Y-4161287D01*
X20096791Y-3277874D01*
X20531961Y-2463727D01*
X20531964Y-2463723D01*
X21117610Y-1750110D01*
X21831223Y-1164464D01*
X21831224Y-1164463D01*
X21831227Y-1164461D01*
X22645374Y-729291D01*
X22645377Y-729290D01*
X23528786Y-461310D01*
X23758283Y-438707D01*
X24217274Y-393500D01*
X25566726Y-393500D01*
X26025717Y-438707D01*
G37*
G36*
X6975717Y-438707D02*
G01*
X7205214Y-461310D01*
X8088623Y-729290D01*
X8088626Y-729291D01*
X8902773Y-1164461D01*
X8902776Y-1164463D01*
X8902777Y-1164464D01*
X9616390Y-1750110D01*
X10202036Y-2463723D01*
X10202039Y-2463727D01*
X10637209Y-3277874D01*
X10905190Y-4161287D01*
X10995675Y-5080000D01*
X10905190Y-5998713D01*
X10637209Y-6882126D01*
X10202039Y-7696273D01*
X10202037Y-7696276D01*
X10202036Y-7696277D01*
X9616390Y-8409890D01*
X8902777Y-8995536D01*
X8902773Y-8995539D01*
X8088626Y-9430709D01*
X8088623Y-9430710D01*
X7205214Y-9698690D01*
X6975717Y-9721293D01*
X6516726Y-9766500D01*
X5167274Y-9766500D01*
X4708283Y-9721293D01*
X4478786Y-9698690D01*
X3595377Y-9430710D01*
X3595374Y-9430709D01*
X2781227Y-8995539D01*
X2781223Y-8995536D01*
X2067610Y-8409890D01*
X1481964Y-7696277D01*
X1481963Y-7696276D01*
X1481961Y-7696273D01*
X1046791Y-6882126D01*
X778810Y-5998713D01*
X688325Y-5080000D01*
X778810Y-4161287D01*
X1046791Y-3277874D01*
X1481961Y-2463727D01*
X1481964Y-2463723D01*
X2067610Y-1750110D01*
X2781223Y-1164464D01*
X2781224Y-1164463D01*
X2781227Y-1164461D01*
X3595374Y-729291D01*
X3595377Y-729290D01*
X4478786Y-461310D01*
X4708283Y-438707D01*
X5167274Y-393500D01*
X6516726Y-393500D01*
X6975717Y-438707D01*
G37*
M02*
